<svg xmlns="http://www.w3.org/2000/svg" xmlns:xlink="http://www.w3.org/1999/xlink" viewBox="0 0 640 360"><defs><pattern id="g" width="20" height="20" patternUnits="userSpaceOnUse"><circle cx="2" cy="2" r="1" fill="#213040"/></pattern></defs><rect width="640" height="360" fill="#0C1420"/><rect width="640" height="360" fill="url(#g)"/><g fill="none" stroke-width="2.5" stroke-linecap="round" stroke-linejoin="round"><rect x="60" y="36" width="84" height="52" rx="8" fill="#101A24" stroke="#E8EDF2"/><path d="M95 51v22l18-11z" fill="#E8EDF2" stroke="#E8EDF2"/><rect x="60" y="112" width="170" height="34" rx="17" fill="#101A24" stroke="#324456"/><path d="M76 129.0h85" stroke="#324456" stroke-width="4" opacity=".7"/><rect x="60" y="158" width="170" height="34" rx="17" fill="#101A24" stroke="#324456"/><path d="M76 175.0h85" stroke="#324456" stroke-width="4" opacity=".7"/><rect x="60" y="204" width="170" height="34" rx="17" fill="#2A1F10" stroke="#D89143"/><path d="M76 221.0h85" stroke="#D89143" stroke-width="4" opacity=".7"/><rect x="60" y="250" width="170" height="34" rx="17" fill="#101A24" stroke="#324456"/><path d="M76 267.0h85" stroke="#324456" stroke-width="4" opacity=".7"/><path d="M230 129h30M230 175h30M230 221h30M230 267h30" stroke="#324456"/>
<path d="M270 110L350 170V226L270 286z" fill="#101A24" stroke="#2DC6C0"/>
<path d="M350 186C400 186 390 104 436 104M350 210C400 210 390 262 436 262" stroke="#324456"/><rect x="446" y="62" width="130" height="26" rx="13" fill="#0F2A2C" stroke="#2DC6C0"/><path d="M462 75.0h65" stroke="#2DC6C0" stroke-width="4" opacity=".7"/><rect x="446" y="96" width="130" height="26" rx="13" fill="#0F2A2C" stroke="#2DC6C0"/><path d="M462 109.0h65" stroke="#2DC6C0" stroke-width="4" opacity=".7"/><rect x="446" y="130" width="130" height="26" rx="13" fill="#0F2A2C" stroke="#2DC6C0"/><path d="M462 143.0h65" stroke="#2DC6C0" stroke-width="4" opacity=".7"/><rect x="446" y="250" width="130" height="26" rx="13" fill="#2A1F10" stroke="#D89143"/><path d="M462 263.0h65" stroke="#D89143" stroke-width="4" opacity=".7"/><path d="M596 252l13 22h-26z" stroke="#D89143"/></g></svg>
